<?xml version="1.0" encoding="UTF-8"?>
<svg id="Layer_1" data-name="Layer 1" xmlns="http://www.w3.org/2000/svg" viewBox="0 0 506 492.7">
  <defs>
    <style>
      .cls-1 {
        fill: #fff;
        stroke: #fff;
        stroke-miterlimit: 10;
      }

      .cls-2 {
        fill: #151515;
      }
    </style>
  </defs>
  <rect class="cls-1" x="62" y="99" width="382" height="305"/>
  <path class="cls-2" d="M253,0C113.27,0,0,110.3,0,246.35s113.27,246.35,253,246.35,253-110.3,253-246.35S392.73,0,253,0ZM226.48,283.67c0,62.94-38.07,103.34-97.9,103.34-23.31,0-46.23-6.22-59.83-15.93v-69.54c12.82,12.43,29.14,19.42,45.07,19.42,25.25,0,40.02-17.09,40.02-47.4V104.18h72.65v179.49h0ZM328.86,166.73v53.23h86.64v61.38h-86.64v101.01h-71.87V104.57h180.27v62.16h-108.4Z"/>
</svg>